<svg viewBox="0 0 1440 1220" fill="none" xmlns="http://www.w3.org/2000/svg">
<path d="M1193.74 0.582579C1197.08 0.574688 1200.35 1.90232 1203.46 4.59589C1209.15 9.53886 1214.56 19.2977 1219.51 35.1638C1230.94 22.7277 1240.25 16.0835 1247.81 13.9566C1251.91 12.8019 1255.58 12.9579 1258.75 14.3309C1261.91 15.6958 1264.37 18.1706 1266.24 21.2726C1269.96 27.4102 1271.63 36.3828 1271.96 45.8311C1272.29 55.3425 1271.28 65.6169 1269.38 74.5635C1269.16 75.6441 1268.09 76.3348 1267.01 76.1062C1265.93 75.8776 1265.24 74.8163 1265.47 73.7356C1267.3 65.0793 1268.28 55.1309 1267.96 45.9716C1267.64 36.7492 1266 28.6017 1262.82 23.3425C1261.25 20.7465 1259.37 18.9535 1257.17 18.0026C1254.99 17.0598 1252.28 16.8517 1248.89 17.8062C1242.19 19.6912 1233.13 26.0193 1221.27 39.1674L1220.11 40.461L1220.11 40.4667C1220.03 40.5603 1219.93 40.6463 1219.83 40.7235C1219.82 40.7355 1219.8 40.7459 1219.78 40.7573C1219.75 40.7818 1219.72 40.8066 1219.68 40.8291C1219.66 40.8428 1219.63 40.8541 1219.61 40.8669C1219.58 40.883 1219.56 40.9011 1219.53 40.9159C1219.5 40.9308 1219.47 40.9425 1219.44 40.9559C1219.41 40.9695 1219.38 40.9834 1219.35 40.9955C1219.17 41.0635 1218.99 41.1074 1218.81 41.1251C1218.72 41.1343 1218.62 41.1348 1218.53 41.1307C1218.5 41.1294 1218.47 41.1291 1218.44 41.1266C1218.42 41.1248 1218.4 41.1219 1218.38 41.1194C1218.34 41.115 1218.31 41.1102 1218.27 41.1036C1218.24 41.0987 1218.21 41.0923 1218.19 41.0863C1218.15 41.0791 1218.12 41.0725 1218.09 41.0637C1218.06 41.0564 1218.04 41.0474 1218.01 41.0389C1217.98 41.0293 1217.95 41.0199 1217.92 41.0088C1217.89 40.9988 1217.87 40.9872 1217.84 40.9761C1217.81 40.963 1217.78 40.9503 1217.75 40.9355C1217.73 40.9293 1217.72 40.922 1217.71 40.9155C1217.61 40.867 1217.52 40.8122 1217.43 40.7473C1217.33 40.6743 1217.24 40.591 1217.16 40.5001C1217.13 40.4704 1217.1 40.4394 1217.08 40.4084C1217.07 40.3938 1217.05 40.3797 1217.04 40.3647C1217.01 40.3249 1216.98 40.2839 1216.95 40.2423C1216.95 40.235 1216.94 40.2284 1216.94 40.2211L1216.93 40.2025C1216.9 40.1701 1216.89 40.1361 1216.87 40.1027C1216.86 40.0852 1216.85 40.0684 1216.84 40.0505C1216.82 40.0079 1216.8 39.964 1216.78 39.9201C1216.77 39.9097 1216.77 39.8997 1216.77 39.8891L1216.76 39.8761C1216.74 39.817 1216.72 39.757 1216.7 39.6963L1216.21 38.0529C1211.16 21.3194 1205.84 11.9642 1200.83 7.61795C1198.31 5.42473 1195.94 4.57707 1193.75 4.58224C1191.53 4.58759 1189.23 5.46849 1186.85 7.2292C1182.04 10.7957 1177.41 17.6248 1173.5 25.9617C1169.61 34.2388 1166.53 43.7537 1164.7 52.4182C1164.47 53.4988 1163.41 54.1895 1162.33 53.9609C1161.25 53.7323 1160.56 52.6709 1160.79 51.5903C1162.68 42.652 1165.85 32.8413 1169.88 24.2614C1173.88 15.7412 1178.85 8.18028 1184.47 4.01535C1187.31 1.91073 1190.43 0.590486 1193.74 0.582579Z" fill="#4D4D4D"/>
<path d="M1348.8 72.563C1351.82 71.715 1354.56 71.8188 1356.95 72.8549C1359.33 73.8831 1361.16 75.7366 1362.53 78.0097C1365.24 82.4896 1366.43 88.9725 1366.67 95.705C1366.91 102.501 1366.18 109.834 1364.83 116.22C1364.6 117.3 1363.54 117.991 1362.46 117.762C1361.38 117.534 1360.69 116.472 1360.92 115.392C1362.21 109.296 1362.9 102.289 1362.67 95.8455C1362.44 89.3392 1361.29 83.6821 1359.11 80.0806C1358.04 78.3132 1356.79 77.1407 1355.37 76.5266C1353.96 75.9206 1352.19 75.766 1349.89 76.4136C1345.15 77.7459 1338.56 82.3733 1329.76 92.3038C1329.74 92.3217 1329.72 92.3369 1329.71 92.354C1329.69 92.3758 1329.67 92.3978 1329.65 92.4186C1329.62 92.4403 1329.6 92.4605 1329.58 92.4809C1329.55 92.5048 1329.52 92.5285 1329.49 92.551C1329.47 92.5718 1329.44 92.5916 1329.41 92.6108C1329.39 92.6279 1329.36 92.644 1329.34 92.66C1329.3 92.6816 1329.27 92.7017 1329.24 92.7211C1329.21 92.7328 1329.19 92.7447 1329.17 92.7557C1329.13 92.7751 1329.1 92.7933 1329.06 92.8101C1329.04 92.8188 1329.02 92.827 1329 92.8351C1328.95 92.8514 1328.91 92.8661 1328.87 92.8795C1328.86 92.8844 1328.84 92.8913 1328.83 92.8959C1328.82 92.8988 1328.8 92.8994 1328.79 92.9022C1328.76 92.9114 1328.73 92.9193 1328.69 92.9268C1328.66 92.9339 1328.63 92.9418 1328.6 92.9473C1328.57 92.9523 1328.54 92.955 1328.51 92.9586C1328.47 92.9633 1328.44 92.9677 1328.4 92.9702C1328.37 92.9722 1328.34 92.9724 1328.31 92.9731C1328.28 92.974 1328.24 92.9751 1328.21 92.9743C1328.18 92.9735 1328.15 92.9709 1328.12 92.9686C1328.08 92.9662 1328.05 92.9643 1328.02 92.96C1327.98 92.9557 1327.95 92.949 1327.91 92.9428C1327.88 92.938 1327.86 92.9347 1327.83 92.9289C1327.8 92.9213 1327.76 92.9107 1327.73 92.9013C1327.7 92.8929 1327.67 92.886 1327.64 92.8762C1327.61 92.8673 1327.58 92.8563 1327.56 92.8462C1327.52 92.8339 1327.49 92.8217 1327.46 92.8078C1327.42 92.7915 1327.39 92.7733 1327.35 92.7546C1327.33 92.7445 1327.31 92.7349 1327.29 92.7241C1327.26 92.7047 1327.22 92.6832 1327.19 92.6615C1327.17 92.6475 1327.14 92.6344 1327.12 92.6196C1327.09 92.5993 1327.07 92.5767 1327.04 92.5547C1327.01 92.535 1326.99 92.5157 1326.96 92.4948C1326.95 92.4876 1326.94 92.4817 1326.94 92.4742C1326.92 92.4604 1326.91 92.4442 1326.89 92.4299C1326.87 92.4055 1326.84 92.3807 1326.82 92.3549C1326.8 92.3349 1326.78 92.3148 1326.76 92.2942C1326.73 92.2637 1326.71 92.233 1326.68 92.2008C1326.67 92.1811 1326.65 92.1607 1326.64 92.1405C1326.61 92.1079 1326.59 92.0747 1326.57 92.0404C1326.56 92.0177 1326.54 91.9949 1326.53 91.9717C1326.51 91.9396 1326.49 91.9071 1326.48 91.8737C1326.46 91.8413 1326.44 91.8083 1326.43 91.7753C1326.42 91.7511 1326.41 91.7268 1326.4 91.702C1326.39 91.6674 1326.37 91.6325 1326.36 91.5974C1326.36 91.5786 1326.35 91.5604 1326.34 91.5412C1322.65 78.957 1318.77 72.1277 1315.22 69.0586C1313.5 67.5736 1311.95 67.0393 1310.55 67.0416C1309.13 67.044 1307.61 67.6053 1305.99 68.8028C1302.68 71.2429 1299.45 75.9773 1296.68 81.8605C1293.93 87.6841 1291.77 94.3869 1290.47 100.49C1290.25 101.571 1289.18 102.262 1288.1 102.033C1287.02 101.804 1286.33 100.743 1286.56 99.6624C1287.91 93.284 1290.17 86.2841 1293.06 80.1568C1295.91 74.0892 1299.5 68.6229 1303.61 65.5849C1305.7 64.0436 1308.03 63.0458 1310.55 63.0416C1313.09 63.0375 1315.54 64.0493 1317.83 66.0327C1321.9 69.5459 1325.68 76.3032 1329.14 87.0347C1336.97 78.6578 1343.44 74.0721 1348.8 72.563Z" fill="#4D4D4D"/>
<path d="M288.067 334.453C320.567 322.453 417.667 302.053 546.067 316.453" stroke="#4D4D4D" stroke-width="3" stroke-linecap="round"/>
<path d="M334.138 311.234L330.356 312.189L312.661 279.587L312.787 316.622L309.006 317.577L288.578 280.034L292.709 278.991L309.251 310.213L308.707 274.954L314.118 273.589L330.66 304.81L330.116 269.551L334.072 268.553L334.138 311.234Z" fill="#4D4D4D"/>
<path d="M348.608 295.718C349.154 299.094 350.248 301.348 351.831 302.49C353.413 303.632 355.483 304.027 357.911 303.634C360.044 303.289 361.616 302.487 362.697 301.279C363.718 300.081 364.081 298.563 363.784 296.727L363.755 296.549L367.664 295.917L367.712 296.213C368.162 298.997 367.579 301.401 365.902 303.435C364.225 305.469 361.635 306.739 358.2 307.295C354.705 307.86 351.69 307.254 349.281 305.516C346.873 303.779 345.28 300.694 344.561 296.251L343.717 291.039C343.018 286.715 343.566 283.345 345.304 280.936C347.042 278.528 349.662 277.07 353.098 276.514C356.533 275.959 359.48 276.515 361.888 278.253C364.297 279.99 365.821 283.026 366.521 287.349L367.096 290.903L348.32 293.941L348.608 295.718ZM348.618 283.013C347.476 284.596 347.199 287.011 347.726 290.269L347.831 290.921L362.579 288.534L362.407 287.468C361.899 284.329 360.893 282.243 359.389 281.21C357.884 280.177 356.002 279.813 353.692 280.187C351.441 280.551 349.77 281.49 348.618 283.013Z" fill="#4D4D4D"/>
<path d="M378.905 301.889C377.488 300.67 376.595 298.783 376.285 296.222L372.272 263.044L376.323 262.554L380.307 295.494C380.494 297.043 380.929 298.138 381.611 298.781C382.293 299.424 383.29 299.666 384.66 299.5L387.102 299.205L387.549 302.898L384.689 303.244C382.247 303.539 380.321 303.107 378.905 301.889Z" fill="#4D4D4D"/>
<path d="M395.281 299.393C392.962 297.602 391.623 294.584 391.254 290.22L390.729 284.002C390.366 279.697 391.174 276.437 393.16 274.283C395.086 272.133 397.87 270.874 401.457 270.571C404.925 270.278 407.751 270.943 409.94 272.625C412.07 274.312 413.293 276.677 413.55 279.726L413.576 280.025L409.63 280.358L409.605 280.059C409.433 278.027 408.644 276.528 407.292 275.498C405.941 274.468 404.162 274.076 401.95 274.263C399.498 274.47 397.581 275.294 396.317 276.726C395.058 278.217 394.537 280.609 394.815 283.898L395.3 289.637C395.582 292.985 396.497 295.256 397.983 296.455C399.474 297.714 401.443 298.211 403.894 298.004C406.106 297.817 407.855 297.127 409.014 295.885C410.174 294.643 410.7 293.033 410.528 291L410.503 290.702L414.449 290.368L414.469 290.607C414.727 293.657 413.917 296.194 412.041 298.219C410.165 300.244 407.55 301.368 404.142 301.656C400.495 301.964 397.54 301.19 395.281 299.393Z" fill="#4D4D4D"/>
<path d="M425.632 297.098C423.453 295.204 422.248 292.131 422.07 287.754L421.817 281.519C421.642 277.203 422.593 273.982 424.611 271.918C426.629 269.855 429.465 268.719 433.002 268.576C436.479 268.435 439.338 269.34 441.517 271.233C443.695 273.126 444.843 276.262 445.018 280.579L445.271 286.814C445.446 291.13 444.556 294.349 442.538 296.412C440.52 298.476 437.743 299.609 434.266 299.75C430.729 299.894 427.81 298.991 425.632 297.098ZM439.491 293.834C440.756 292.461 441.321 290.096 441.185 286.739L440.951 280.984C440.818 277.687 440.064 275.375 438.689 274.05C437.256 272.787 435.431 272.2 433.153 272.293C430.815 272.387 428.983 273.122 427.658 274.497C426.335 275.932 425.77 278.297 425.904 281.594L426.137 287.349C426.273 290.706 427.028 293.018 428.46 294.281C429.895 295.604 431.78 296.188 434.118 296.093C436.396 296.001 438.168 295.268 439.491 293.834Z" fill="#4D4D4D"/>
<path d="M457.486 268.189L457.438 271.908C458.355 270.6 459.508 269.595 460.957 268.894C462.346 268.252 463.97 267.913 465.71 267.935C467.81 267.962 469.544 268.405 471.032 269.324C472.521 270.244 473.644 271.518 474.403 273.148C476.427 269.754 479.569 268.115 483.708 268.168C486.948 268.21 489.456 269.203 491.231 271.086C493.006 273.029 493.872 275.681 493.828 279.1L493.569 299.079L489.489 299.026L489.74 279.647C489.773 277.128 489.198 275.2 488.015 273.865C486.772 272.528 485.101 271.847 482.881 271.818C480.661 271.789 478.913 272.427 477.636 273.73C476.358 275.094 475.674 276.945 475.644 279.285L475.391 298.843L471.251 298.79L471.502 279.411C471.535 276.891 470.959 274.964 469.777 273.628C468.534 272.292 466.863 271.61 464.643 271.582C462.483 271.554 460.734 272.191 459.457 273.495C458.12 274.857 457.435 276.769 457.403 279.229L457.152 298.607L453.072 298.554L453.466 268.137L457.486 268.189Z" fill="#4D4D4D"/>
<path d="M505.738 287.226C505.518 290.638 506.082 293.08 507.37 294.546C508.658 296.012 510.587 296.858 513.042 297.017C515.198 297.156 516.909 296.726 518.232 295.789C519.495 294.849 520.187 293.45 520.307 291.594L520.319 291.415L524.27 291.67L524.251 291.969C524.069 294.784 522.964 296.997 520.876 298.606C518.788 300.214 515.98 300.874 512.507 300.65C508.974 300.422 506.17 299.158 504.21 296.927C502.249 294.696 501.384 291.333 501.675 286.843L502.015 281.574C502.298 277.203 503.584 274.039 505.815 272.079C508.047 270.119 510.926 269.283 514.399 269.507C517.872 269.732 520.62 270.931 522.581 273.162C524.541 275.394 525.35 278.693 525.067 283.063L524.835 286.656L505.855 285.429L505.738 287.226ZM508.583 274.843C507.117 276.131 506.307 278.424 506.094 281.717L506.052 282.376L520.961 283.339L521.03 282.261C521.236 279.088 520.72 276.83 519.484 275.488C518.248 274.145 516.494 273.37 514.159 273.22C511.884 273.072 510.045 273.615 508.583 274.843Z" fill="#4D4D4D"/>
<path d="M537.984 296.775L537.475 302.271L532.218 301.784L532.727 296.288L537.984 296.775Z" fill="#4D4D4D"/>
<path d="M292.331 269.527L279.827 213.973" stroke="#4D4D4D" stroke-width="2" stroke-linecap="round"/>
<path d="M287.067 213C290.234 210 298.467 204 306.067 204C315.567 204 306.567 216 333.067 206.5" stroke="#4D4D4D" stroke-width="2" stroke-linecap="round"/>
<path d="M292.067 241.5C295.234 238.5 303.467 232.5 311.067 232.5C320.567 232.5 311.567 244.5 338.067 235" stroke="#4D4D4D" stroke-width="2" stroke-linecap="round"/>
<path d="M333.067 206.5L325.567 222.5L338.067 234.5" stroke="#4D4D4D" stroke-width="2" stroke-linecap="round"/>
<path d="M1439.95 435.102C1405.41 305.602 1339.24 74.7201 1028 76.0054C711 77.3144 614.3 353.98 521.792 503.36C345.855 787.46 0 760.628 0 760.628V1147.58H1439.95L1439.95 435.102Z" fill="#81BCFF"/>
<path d="M413.463 338.402C168.331 354.951 35.6829 528.465 5.80325e-05 613.154L0 1147.58H1439.95L1439.95 680.602C1182.25 1157.55 979.641 811.88 840.675 613.154C767.606 508.663 658.594 321.853 413.463 338.402Z" fill="#ACE6FF"/>
<path d="M228.345 916.563C154.414 938.614 45.3106 1051.73 5.80325e-05 1105.53V1219.1H1439.95V1037.78C1439.95 1057.36 1444.39 1093.24 1369.58 1094.57C1294.77 1095.89 1228.05 889.161 1120.27 987.834C995.387 1102.16 933.995 1090.38 858.618 1037.78C776.365 980.381 753.009 1103.85 692.626 1114.81C603.87 1130.92 536.785 1086.01 473.819 1037.78C398.04 979.727 320.759 888.999 228.345 916.563Z" fill="white"/>
</svg>
