<?xml version="1.0" encoding="UTF-8"?>
<svg id="_レイヤー_1" data-name="レイヤー 1" xmlns="http://www.w3.org/2000/svg" viewBox="0 0 500 500">
  <defs>
    <style>
      .cls-1 {
        fill: #4d4d4d;
      }
    </style>
  </defs>
  <path class="cls-1" d="M388.98,322.79c0,20.85-5.37,39.59-16.11,56.2-10.74,16.62-26.46,29.63-47.15,39.04-20.69,9.41-45.23,14.11-73.61,14.11-34.02,0-62.08-6.43-84.19-19.28-15.68-9.25-28.42-21.59-38.21-37.04-9.8-15.44-14.7-30.45-14.7-45.03,0-8.47,2.94-15.71,8.82-21.75,5.88-6.03,13.36-9.05,22.46-9.05,7.37,0,13.6,2.35,18.7,7.05,5.09,4.7,9.44,11.68,13.05,20.93,4.39,10.98,9.13,20.15,14.23,27.51,5.09,7.37,12.27,13.44,21.52,18.23,9.25,4.78,21.4,7.17,36.45,7.17,20.69,0,37.51-4.82,50.44-14.46,12.94-9.64,19.4-21.67,19.4-36.1,0-11.44-3.49-20.73-10.46-27.87-6.98-7.13-15.99-12.58-27.04-16.34s-25.83-7.76-44.33-11.99c-24.77-5.8-45.5-12.58-62.2-20.34-16.7-7.76-29.95-18.34-39.74-31.75-9.8-13.4-14.7-30.06-14.7-49.97s5.17-35.82,15.52-50.56c10.35-14.73,25.32-26.06,44.92-33.98,19.6-7.91,42.64-11.88,69.14-11.88,21.17,0,39.47,2.63,54.91,7.88,15.44,5.25,28.26,12.23,38.45,20.93,10.19,8.7,17.64,17.84,22.34,27.4,4.7,9.56,7.05,18.89,7.05,27.98,0,8.31-2.94,15.8-8.82,22.46-5.88,6.67-13.21,9.99-21.99,9.99-7.99,0-14.07-2-18.22-6-4.16-4-8.66-10.54-13.52-19.64-6.27-13.01-13.8-23.16-22.58-30.45-8.78-7.29-22.89-10.94-42.33-10.94-18.03,0-32.57,3.96-43.62,11.88-11.05,7.92-16.58,17.44-16.58,28.57,0,6.9,1.88,12.86,5.64,17.87,3.76,5.02,8.94,9.33,15.52,12.93,6.58,3.61,13.25,6.43,19.99,8.47,6.74,2.04,17.87,5.02,33.39,8.94,19.44,4.55,37.04,9.56,52.79,15.05,15.76,5.49,29.16,12.15,40.21,19.99,11.05,7.84,19.67,17.75,25.87,29.75,6.19,11.99,9.29,26.69,9.29,44.09Z"/>
  <circle class="cls-1" cx="433.24" cy="393.39" r="29"/>
  <path class="cls-1" d="M174.2,45.05l-5.35,51.87c-.76,7.39,6.52,13.01,13.48,10.38l43.64-16.47c6.96-2.62,8.72-11.65,3.26-16.7l-38.28-35.4c-6.05-5.59-15.89-1.88-16.74,6.32Z"/>
  <path class="cls-1" d="M261.42,36.39l-27.99,43.99c-3.99,6.27.01,14.55,7.41,15.32l46.39,4.8c7.39.76,13.01-6.52,10.39-13.48l-18.4-48.79c-2.91-7.71-13.37-8.79-17.79-1.84Z"/>
</svg>